<?xml version="1.0" encoding="UTF-8"?>
<svg width="1200pt" height="1200pt" version="1.1" viewBox="0 0 1200 1200" xmlns="http://www.w3.org/2000/svg">
 <path d="m628.12 496.88c-1.875-5.625-5.625-9.375-9.375-11.25s-9.375-1.875-15-1.875c-52.5 18.75-144.38 75-140.62 170.62-15 3.75-28.125 11.25-39.375 22.5-15 15-24.375 37.5-24.375 58.125 0 18.75 5.625 35.625 16.875 48.75-15 3.75-28.125 11.25-37.5 20.625-15 15-24.375 37.5-24.375 58.125 0 46.875 37.5 84.375 84.375 84.375h345c22.5 0 43.125-9.375 60-24.375 15-15 24.375-37.5 24.375-58.125 0-39.375-26.25-71.25-61.875-80.625 11.25-15 16.875-31.875 16.875-48.75 0-26.25-13.125-52.5-33.75-67.5h-1.875c-7.5-5.625-15-9.375-24.375-11.25-35.625-18.75-106.88-65.625-135-159.38zm200.62 367.5c0 13.125-5.625 24.375-13.125 31.875-9.375 9.375-20.625 13.125-31.875 13.125h-345c-26.25 0-46.875-20.625-46.875-46.875 0-13.125 5.625-24.375 13.125-31.875 9.375-9.375 20.625-13.125 31.875-13.125h112.5c11.25 0 18.75-7.5 18.75-18.75s-7.5-18.75-18.75-18.75h-65.625c-24.375 0-45-20.625-45-45 0-13.125 5.625-24.375 13.125-31.875 9.375-9.375 20.625-13.125 31.875-13.125h78.75c11.25 0 18.75-7.5 18.75-18.75s-7.5-18.75-18.75-18.75h-61.875c-1.875-69.375 65.625-108.75 97.5-123.75 45 118.12 146.25 163.12 165 172.5 11.25 9.375 16.875 22.5 16.875 35.625s-5.625 24.375-13.125 31.875-20.625 13.125-31.875 13.125-18.75 7.5-18.75 18.75 7.5 18.75 18.75 18.75h46.875c26.25 0 46.875 20.625 46.875 45z"/>
 <path d="m742.5 399.38v-80.625c0-5.625-1.875-11.25-5.625-13.125-3.75-3.75-7.5-5.625-13.125-3.75l65.625-108.75c1.875-3.75 3.75-9.375 1.875-15s-5.625-9.375-9.375-11.25c-22.5-11.25-219.38-99.375-294.38-26.25-3.75 3.75-5.625 5.625-5.625 11.25 0 3.75-15 90 11.25 155.62-5.625 0-13.125-1.875-18.75-1.875s-11.25 0-15 3.75-5.625 9.375-5.625 15v86.25c-120 95.625-195 285-195 414.38 0 174.38 121.88 270 345 270s345-95.625 345-270c-3.75-136.88-80.625-331.88-206.25-425.62zm-226.88-238.12c13.125-9.375 30-13.125 52.5-13.125-5.625 16.875-7.5 43.125 0 73.125 1.875 7.5 9.375 13.125 18.75 13.125h5.625c9.375-1.875 15-13.125 13.125-22.5-7.5-28.125-1.875-48.75 1.875-60 48.75 7.5 103.12 26.25 138.75 41.25l-67.5 114.38c-52.5 3.75-99.375 3.75-144.38 1.875-28.125-46.875-20.625-125.62-18.75-148.12zm-28.125 180c65.625 7.5 136.88 7.5 217.5 0v52.5c-52.5 9.375-121.88 9.375-217.5-1.875zm112.5 710.62c-140.62 0-307.5-39.375-307.5-232.5 0-123.75 73.125-305.62 189.38-391.88 52.5 5.625 95.625 9.375 135 9.375s71.25-3.75 101.25-9.375c116.25 86.25 189.38 268.12 189.38 391.88 0 193.12-166.88 232.5-307.5 232.5z"/>
</svg>
